<svg width="1180" height="260" viewBox="0 0 1180 260" fill="none" xmlns="http://www.w3.org/2000/svg">
  <rect width="1180" height="260" rx="20" fill="#F8FAFC"/>
  <g font-family="Inter, Arial, sans-serif">
    <rect x="42" y="64" width="170" height="120" rx="14" fill="#FFFFFF" stroke="#D7DEE8"/>
    <text x="127" y="112" text-anchor="middle" font-size="17" font-weight="700" fill="#101827">Handwriting</text>
    <text x="127" y="142" text-anchor="middle" font-size="13" fill="#697386">mouse or tablet</text>
    <path d="M80 154 C95 130,113 130,127 154 M88 145 C105 144,116 144,130 146" stroke="#111827" stroke-width="5" stroke-linecap="round"/>

    <path d="M232 124H292" stroke="#1D9A8A" stroke-width="3" stroke-linecap="round"/>
    <path d="M282 114L294 124L282 134" stroke="#1D9A8A" stroke-width="3" stroke-linecap="round" stroke-linejoin="round"/>

    <rect x="314" y="64" width="170" height="120" rx="14" fill="#FFFFFF" stroke="#D7DEE8"/>
    <text x="399" y="108" text-anchor="middle" font-size="17" font-weight="700" fill="#101827">Vector JSON</text>
    <text x="399" y="138" text-anchor="middle" font-size="13" fill="#697386">strokes + pressure</text>
    <text x="399" y="162" text-anchor="middle" font-family="Menlo, monospace" font-size="12" fill="#1D9A8A">[x, y, t, p]</text>

    <path d="M504 124H564" stroke="#1D9A8A" stroke-width="3" stroke-linecap="round"/>
    <path d="M554 114L566 124L554 134" stroke="#1D9A8A" stroke-width="3" stroke-linecap="round" stroke-linejoin="round"/>

    <rect x="586" y="64" width="170" height="120" rx="14" fill="#FFFFFF" stroke="#D7DEE8"/>
    <text x="671" y="108" text-anchor="middle" font-size="17" font-weight="700" fill="#101827">Outline</text>
    <text x="671" y="138" text-anchor="middle" font-size="13" fill="#697386">Bezier + expansion</text>
    <path d="M632 160 C648 128,675 128,706 160" stroke="#F2B84B" stroke-width="8" stroke-linecap="round"/>

    <path d="M776 124H836" stroke="#1D9A8A" stroke-width="3" stroke-linecap="round"/>
    <path d="M826 114L838 124L826 134" stroke="#1D9A8A" stroke-width="3" stroke-linecap="round" stroke-linejoin="round"/>

    <rect x="858" y="64" width="170" height="120" rx="14" fill="#FFFFFF" stroke="#D7DEE8"/>
    <text x="943" y="108" text-anchor="middle" font-size="17" font-weight="700" fill="#101827">TrueType</text>
    <text x="943" y="138" text-anchor="middle" font-size="13" fill="#697386">glyph + cmap tables</text>
    <text x="943" y="164" text-anchor="middle" font-family="Menlo, monospace" font-size="16" font-weight="700" fill="#253149">.ttf</text>

    <path d="M1048 124H1108" stroke="#1D9A8A" stroke-width="3" stroke-linecap="round"/>
    <path d="M1098 114L1110 124L1098 134" stroke="#1D9A8A" stroke-width="3" stroke-linecap="round" stroke-linejoin="round"/>
    <text x="1130" y="108" text-anchor="middle" font-size="15" font-weight="700" fill="#101827">Use</text>
    <text x="1130" y="132" text-anchor="middle" font-size="13" fill="#697386">Word</text>
    <text x="1130" y="154" text-anchor="middle" font-size="13" fill="#697386">Sample HTML</text>
    <text x="590" y="226" text-anchor="middle" font-size="13" fill="#617084">Optional project backup keeps the editable JSON strokes portable.</text>
  </g>
</svg>
